<?xml version="1.0" encoding="UTF-8" standalone="no"?>
<!DOCTYPE svg PUBLIC "-//W3C//DTD SVG 1.1//EN" "http://www.w3.org/Graphics/SVG/1.1/DTD/svg11.dtd">
<svg width="100%" height="100%" viewBox="0 0 2481 1749" version="1.1" xmlns="http://www.w3.org/2000/svg" xmlns:xlink="http://www.w3.org/1999/xlink" xml:space="preserve" xmlns:serif="http://www.serif.com/" style="fill-rule:evenodd;clip-rule:evenodd;stroke-linecap:round;stroke-linejoin:round;stroke-miterlimit:1.5;">
    <g transform="matrix(1,0,0,1,-700.558,-0.38422)">
        <text x="1311.57px" y="771.455px" style="font-family:'LiSungLight', 'Apple LiSung';font-size:200px;fill:white;fill-opacity:0.62;">F<tspan x="1440.46px 1590.35px 1750.44px 1910.54px 2070.63px 2157.72px 2317.81px 2477.9px " y="771.455px 771.455px 771.455px 771.455px 771.455px 771.455px 771.455px 771.455px ">RAUNIGAI</tspan></text>
    </g>
    <g transform="matrix(1,0,0,1,0,-47)">
        <path d="M1198.73,1534.89C1198.73,1534.89 1202.7,1471.3 1176.79,1469.09C1150.87,1466.87 1150.11,1486.36 1121.12,1496.06C1092.13,1505.76 999.33,1478.72 914.414,1427.5C829.498,1376.27 719.291,1302.35 694.815,1248.31C670.339,1194.27 660.377,1148.92 644.605,1111.42C628.834,1073.92 389.61,728.821 405.482,619.781C421.354,510.741 434.92,490.325 437.82,451.971C440.72,413.616 430.923,392.842 439.127,368.746C447.332,344.651 488.548,316.644 498.668,295.361C508.787,274.078 497.335,231.615 497.335,231.615C497.335,231.615 477.936,234.652 457.416,265.669C436.896,296.686 413.409,319.09 413.409,319.09C413.409,319.09 403.124,247.511 392.494,219.819C381.864,192.126 370.394,190.233 362.731,194.254C355.068,198.274 347.12,253.55 350.669,296.038C354.219,338.525 366.346,370.221 367.803,401.722C369.259,433.223 377.953,559.181 354.403,559.71C330.854,560.239 327.651,484.159 326.708,460.4C325.765,436.641 298.017,283.09 285.276,258.17C272.534,233.249 252.113,247.072 252.113,247.072C252.113,247.072 257.098,274.494 262.501,314.293C267.905,354.092 249.008,442.609 267.337,557.135C285.666,671.662 359.722,748.814 370.387,786.076C381.053,823.338 367.679,832.408 367.679,832.408C367.679,832.408 312.848,797.272 281.697,732.046C250.545,666.821 252.846,610.861 236.891,565.502C220.937,520.142 158.414,407.913 138.472,387.943C118.529,367.972 113.102,377.619 113.102,377.619C113.102,377.619 110.979,436.999 141.573,510.456C172.168,583.913 189.945,648.98 223.548,725.692C257.152,802.403 336.402,861.81 365.047,899.869C393.692,937.929 435.156,916.769 459.563,940.837C483.97,964.905 631.636,1185.81 585.08,1242.42C538.523,1299.03 515.318,1270.84 478.894,1263.81C442.47,1256.79 411.515,1232.08 390.287,1227C369.058,1221.93 359.592,1232.3 359.592,1232.3C359.592,1232.3 370.394,1256.35 405.559,1282.69C440.724,1309.03 502.591,1334.3 551.477,1330.19C600.363,1326.09 618.385,1325.64 639.033,1326.49C659.681,1327.33 724.269,1350.78 764.874,1387.21C805.479,1423.64 838.315,1443.4 835.261,1473.35C832.207,1503.3 774.075,1543.93 725.756,1567.33C677.436,1590.72 642.262,1615.87 619.854,1616.27C597.445,1616.66 568.859,1608.37 558.198,1617.41C547.537,1626.45 561.462,1672.93 601.06,1668.84C640.658,1664.74 721.613,1626.2 760.586,1598.46C799.559,1570.72 844.077,1537.78 920.433,1529.53C996.788,1521.29 1051.17,1533.04 1081.14,1547.51C1111.11,1561.97 1134.06,1571.38 1134.06,1571.38C1134.06,1571.38 1140.86,1596.51 1163.47,1592.72C1186.09,1588.93 1185.39,1574.89 1198.73,1534.89Z" style="fill:white;fill-opacity:0.62;stroke:black;stroke-width:1px;"/>
        <g transform="matrix(-1,0,0,1,2449.75,0)">
            <path d="M1198.73,1534.89C1198.73,1534.89 1202.7,1471.3 1176.79,1469.09C1150.87,1466.87 1150.11,1486.36 1121.12,1496.06C1092.13,1505.76 999.33,1478.72 914.414,1427.5C829.498,1376.27 719.291,1302.35 694.815,1248.31C670.339,1194.27 660.377,1148.92 644.605,1111.42C628.834,1073.92 389.61,728.821 405.482,619.781C421.354,510.741 434.92,490.325 437.82,451.971C440.72,413.616 430.923,392.842 439.127,368.746C447.332,344.651 488.548,316.644 498.668,295.361C508.787,274.078 497.335,231.615 497.335,231.615C497.335,231.615 477.936,234.652 457.416,265.669C436.896,296.686 413.409,319.09 413.409,319.09C413.409,319.09 403.124,247.511 392.494,219.819C381.864,192.126 370.394,190.233 362.731,194.254C355.068,198.274 347.12,253.55 350.669,296.038C354.219,338.525 366.346,370.221 367.803,401.722C369.259,433.223 377.953,559.181 354.403,559.71C330.854,560.239 327.651,484.159 326.708,460.4C325.765,436.641 298.017,283.09 285.276,258.17C272.534,233.249 252.113,247.072 252.113,247.072C252.113,247.072 257.098,274.494 262.501,314.293C267.905,354.092 249.008,442.609 267.337,557.135C285.666,671.662 359.722,748.814 370.387,786.076C381.053,823.338 367.679,832.408 367.679,832.408C367.679,832.408 312.848,797.272 281.697,732.046C250.545,666.821 252.846,610.861 236.891,565.502C220.937,520.142 158.414,407.913 138.472,387.943C118.529,367.972 113.102,377.619 113.102,377.619C113.102,377.619 110.979,436.999 141.573,510.456C172.168,583.913 189.945,648.98 223.548,725.692C257.152,802.403 336.402,861.81 365.047,899.869C393.692,937.929 435.156,916.769 459.563,940.837C483.97,964.905 631.636,1185.81 585.08,1242.42C538.523,1299.03 515.318,1270.84 478.894,1263.81C442.47,1256.79 411.515,1232.08 390.287,1227C369.058,1221.93 359.592,1232.3 359.592,1232.3C359.592,1232.3 370.394,1256.35 405.559,1282.69C440.724,1309.03 502.591,1334.3 551.477,1330.19C600.363,1326.09 618.385,1325.64 639.033,1326.49C659.681,1327.33 724.269,1350.78 764.874,1387.21C805.479,1423.64 838.315,1443.4 835.261,1473.35C832.207,1503.3 774.075,1543.93 725.756,1567.33C677.436,1590.72 642.262,1615.87 619.854,1616.27C597.445,1616.66 568.859,1608.37 558.198,1617.41C547.537,1626.45 561.462,1672.93 601.06,1668.84C640.658,1664.74 721.613,1626.2 760.586,1598.46C799.559,1570.72 844.077,1537.78 920.433,1529.53C996.788,1521.29 1051.17,1533.04 1081.14,1547.51C1111.11,1561.97 1134.06,1571.38 1134.06,1571.38C1134.06,1571.38 1140.86,1596.51 1163.47,1592.72C1186.09,1588.93 1185.39,1574.89 1198.73,1534.89Z" style="fill:white;fill-opacity:0.62;stroke:black;stroke-width:1px;"/>
        </g>
    </g>
</svg>
